<svg viewBox="0 0 24 24" fill="none" xmlns="http://www.w3.org/2000/svg">
<g id="Iconly/Curved/Buy">
<g id="Buy">
<path id="Stroke 1" d="M5.52383 7.00009C9.41433 5.74395 13.9725 5.45582 16.0001 5.50009C18.0277 5.54436 18.8832 6.26639 19.5001 7.50009C20.5001 9.50009 20.2891 14.4882 18.5001 16.0872C16.7121 17.6862 9.33021 17.8382 6.87021 16.0872C4.27121 14.2362 5.62906 9.19209 5.54406 5.74309C5.59506 3.81309 3.50006 3.50009 3.50006 3.50009" stroke="#518581" stroke-width="1.5" stroke-linecap="round" stroke-linejoin="round"/>
<path id="Stroke 3" d="M13.0001 10.5001H15.7731" stroke="#518581" stroke-width="1.5" stroke-linecap="round" stroke-linejoin="round"/>
<path id="Stroke 5" fill-rule="evenodd" clip-rule="evenodd" d="M7.26399 20.1275C7.56399 20.1275 7.80799 20.3715 7.80799 20.6715C7.80799 20.9725 7.56399 21.2165 7.26399 21.2165C6.96299 21.2165 6.71899 20.9725 6.71899 20.6715C6.71899 20.3715 6.96299 20.1275 7.26399 20.1275Z" fill="#518581" stroke="#518581" stroke-width="1.5" stroke-linecap="round" stroke-linejoin="round"/>
<path id="Stroke 7" fill-rule="evenodd" clip-rule="evenodd" d="M17.5955 20.1275C17.8965 20.1275 18.1405 20.3715 18.1405 20.6715C18.1405 20.9725 17.8965 21.2165 17.5955 21.2165C17.2955 21.2165 17.0515 20.9725 17.0515 20.6715C17.0515 20.3715 17.2955 20.1275 17.5955 20.1275Z" fill="#518581" stroke="#518581" stroke-width="1.5" stroke-linecap="round" stroke-linejoin="round"/>
</g>
</g>
</svg>
