<svg viewBox="0 0 24 24" fill="none" xmlns="http://www.w3.org/2000/svg">
<path fill-rule="evenodd" clip-rule="evenodd" d="M22.9551 2.046H14.2723V0L0 2.20286V21.5117L14.2723 23.97V20.9374H22.9551C23.2181 20.9508 23.4757 20.8594 23.6715 20.6834C23.8673 20.5073 23.9854 20.2609 24 19.998V2.98457C23.9852 2.72183 23.8669 2.47563 23.6712 2.29977C23.4754 2.1239 23.218 2.03267 22.9551 2.046ZM23.0923 20.154H14.2431L14.2286 18.5349H16.3603V16.6491H14.2123L14.202 15.5349H16.3603V13.6491H14.1857L14.1754 12.5349H16.3603V10.6491H14.1686V9.53486H16.3603V7.64914H14.1686V6.53486H16.3603V4.64914H14.1686V2.93486H23.0923V20.154Z" fill="#20744A"/>
<path d="M17.5603 4.64658H21.2657V6.53229H17.5603V4.64658Z" fill="#20744A"/>
<path d="M17.5603 7.64743H21.2657V9.53315H17.5603V7.64743Z" fill="#20744A"/>
<path d="M17.5603 10.6483H21.2657V12.534H17.5603V10.6483Z" fill="#20744A"/>
<path d="M17.5603 13.6491H21.2657V15.5349H17.5603V13.6491Z" fill="#20744A"/>
<path d="M17.5603 16.65H21.2657V18.5357H17.5603V16.65Z" fill="#20744A"/>
<path fill-rule="evenodd" clip-rule="evenodd" d="M3.72601 7.41857L5.56544 7.31314L6.72173 10.4923L8.08801 7.182L9.92744 7.07657L7.69373 11.5903L9.92744 16.1151L7.98258 15.984L6.66944 12.5349L5.35544 15.8529L3.5683 15.6951L5.6443 11.6983L3.72601 7.41857Z" fill="white"/>
</svg>
