<svg viewBox="0 0 14 14" fill="none" xmlns="http://www.w3.org/2000/svg">
<path fill-rule="evenodd" clip-rule="evenodd" d="M7 1.75C5.81224 1.75 5.69995 3.8188 4.99282 4.54975C4.28568 5.2807 2.08728 4.44495 1.78184 5.74235C1.47704 7.04041 3.45471 7.48083 3.69854 8.5945C3.94367 9.70817 2.73538 11.2729 3.76785 12.0516C4.80031 12.8296 5.9117 11.0686 7 11.0686C8.08829 11.0686 9.19968 12.8296 10.2321 12.0516C11.2646 11.2729 10.057 9.70817 10.3014 8.5945C10.5459 7.48083 12.5229 7.04041 12.2181 5.74235C11.9134 4.44495 9.71431 5.2807 9.00782 4.54975C8.30068 3.8188 8.18775 1.75 7 1.75Z" stroke="#FFB23F" stroke-width="1.5" stroke-linecap="round" stroke-linejoin="round"/>
</svg>
